<svg width="500" height="250" viewBox="0 0 500 250" fill="none" xmlns="http://www.w3.org/2000/svg">
<path d="M342.611 65.6842C342.611 74.5986 341.077 82.9915 337.962 90.1515C335.182 96.8373 331.204 102.622 326.027 107.601C307.334 125.382 279.487 126.426 273.591 126.426H215.452V4.75307H272.537C275.652 4.75307 305.944 4.42115 325.835 23.2458C331.012 28.2246 335.182 34.0095 337.962 40.6953C341.077 48.045 342.611 56.4378 342.611 65.6842ZM323.583 65.6842C323.583 58.9984 322.528 53.0238 320.275 48.045C318.55 43.7774 315.962 39.8418 312.654 36.7597C305.034 29.5523 294.824 26.3279 287.395 24.9528C279.247 23.388 273.208 23.5777 273.016 23.5777H237.883V107.601H273.016C273.687 107.601 298.275 107.933 312.798 94.0871C316.105 90.8153 318.694 87.0694 320.419 82.9441C322.528 78.0127 323.583 72.1804 323.583 65.6842Z" fill="white"/>
<path d="M477.489 4.75269V30.3116V69.3375V70.9971C477.489 71.092 477.489 71.2342 477.489 71.3291C477.489 74.9803 477.394 78.6316 476.819 82.188C476.388 84.6538 475.717 87.0722 474.807 89.3957C474.711 89.5854 474.664 89.7751 474.568 89.9648C474.089 91.1502 473.562 92.3357 472.987 93.4738C471.55 96.1293 469.874 98.6899 467.719 100.776C464.797 103.764 461.349 106.087 457.326 107.652C453.111 109.312 448.178 110.165 442.766 110.213H430.026C424.566 110.213 419.681 109.312 415.466 107.652C411.443 106.087 407.995 103.764 405.073 100.776C402.966 98.6899 401.29 96.1293 399.805 93.4738C399.23 92.3357 398.703 91.1977 398.224 89.9648C398.129 89.7751 398.081 89.5854 397.985 89.3483C397.123 87.0248 396.404 84.6064 395.973 82.1406C395.399 78.5842 395.303 74.9329 395.303 71.2816C395.303 71.1868 395.303 71.0446 395.303 70.9497V69.3375V30.3116V4.75269H372.84V65.1646C372.84 71.8507 372.84 78.5368 373.894 85.0332C374.948 91.1977 377.007 97.1725 379.785 102.483C382.036 106.609 384.622 110.545 387.927 113.769C392.429 118.369 397.793 121.973 404.019 124.391C410.581 126.952 418.148 128.327 426.578 128.327H446.262C454.692 128.327 462.259 126.952 468.82 124.391C475.047 121.973 480.411 118.416 484.913 113.769C488.218 110.497 490.804 106.561 493.055 102.483C495.833 97.1725 497.892 91.1977 498.946 85.0332C500 78.5368 500 71.8507 500 65.1646V4.75269H477.489Z" fill="white"/>
<path d="M159.884 126.426H184.741L99.2268 0L13.916 126.426H38.618L59.9246 94.9258H138.577L159.884 126.426ZM72.8334 75.7704L99.2268 36.7501L125.62 75.7704H72.8334Z" fill="white"/>
<path d="M227.796 212.349V126.426H215.451L144.434 231.174H210.55V250H227.796V231.174H239.644L252.399 212.349H227.796ZM210.55 212.349H177.635L210.55 163.08V212.349Z" fill="#FDC500"/>
<path d="M123.561 183.347C128.396 174.801 129.785 166.019 127.87 157.283C125.955 148.216 120.258 139.956 111.976 134.306C104.555 129.321 95.3636 126.426 86.4113 126.426C86.0762 126.426 85.6932 126.473 85.3581 126.473V126.426H13.9155L0 146.982H85.3581H86.4113C91.2465 146.982 96.2732 148.501 100.247 151.254C103.023 153.153 106.47 156.381 107.667 161.556C108.768 167.111 106.47 172.143 103.311 176.605C102.975 177.08 102.64 177.555 102.305 178.029L53.3309 250H131.939L144.434 231.153H92.1082L123.561 183.347Z" fill="#FDC500"/>
<path d="M356.046 218.155C372.742 218.155 386.276 204.75 386.276 188.212C386.276 171.675 372.742 158.27 356.046 158.27C339.35 158.27 325.815 171.675 325.815 188.212C325.815 204.75 339.35 218.155 356.046 218.155Z" fill="#FDC500"/>
</svg>
